<?xml version="1.0" encoding="utf-8"?>
<!-- Generator: Adobe Illustrator 24.2.3, SVG Export Plug-In . SVG Version: 6.00 Build 0)  -->
<svg version="1.1" id="Layer_1" xmlns="http://www.w3.org/2000/svg" xmlns:xlink="http://www.w3.org/1999/xlink" x="0px" y="0px"
	 viewBox="0 0 168 112.6" style="enable-background:new 0 0 168 112.6;" xml:space="preserve">
<style type="text/css">
	.st0{fill:none;stroke:#000000;stroke-miterlimit:10;stroke-dasharray:10,2;}
</style>
<g>
	<g>
		<path class="st0" d="M111.8,1.7L111.8,1.7c-11.1,0-21.5,3.3-30.1,9c7.6,5,13.8,11.9,18.1,19.9c16.8-0.6,35.8,2.6,49.5,10.7
			c2.4,1.4,3.2,4.6,1.8,7s-4.6,3.2-7,1.8l0,0c-10.9-6.5-26.1-9.3-40.1-9.3c0.8,2.8,1.4,5.7,1.8,8.7c13.1,0.5,26.1,4,36.3,10.3
			c2,1.2,2.6,3.9,1.4,5.9l0,0c-1.2,2-3.9,2.6-5.9,1.4c-8.7-5.3-20-8.4-31.5-9c-0.1,3.1-0.4,6.2-1,9.2c11.4,0.3,21.7,3.1,30.6,8.6
			c1.6,1,2.1,3.1,1.1,4.7s-3.1,2.1-4.7,1.1c-8.3-5.1-18-7.6-28.9-7.6c-3.9,11.5-11.6,21.3-21.6,27.8c8.6,5.7,19,9,30.1,9
			c30.2,0,54.6-24.4,54.6-54.6C166.4,26.1,142,1.7,111.8,1.7z"/>
	</g>
	<path d="M56.2,1.7C26,1.7,1.6,26.1,1.6,56.3s24.5,54.6,54.6,54.6c30.2,0,54.6-24.4,54.6-54.6C110.8,26.1,86.3,1.7,56.2,1.7
		L56.2,1.7z M81.2,80.5c-1,1.6-3.1,2.1-4.7,1.1c-12.8-7.8-29-9.6-48-5.3c-1.8,0.4-3.7-0.7-4.1-2.6C24,71.9,25.1,70,27,69.6
		c20.8-4.8,38.6-2.7,53,6.1C81.7,76.8,82.2,78.8,81.2,80.5z M87.9,65.6c-1.2,2-3.9,2.6-5.9,1.4c-14.6-9-37-11.7-54.4-6.4
		c-2.3,0.7-4.6-0.6-5.3-2.8c-0.7-2.3,0.6-4.6,2.8-5.3c19.8-6,44.5-3.1,61.3,7.3C88.5,61,89.1,63.6,87.9,65.6L87.9,65.6z M88.5,50.1
		C70.9,39.6,41.8,38.7,25,43.8c-2.7,0.8-5.6-0.7-6.4-3.4s0.7-5.6,3.4-6.4c19.4-5.8,51.4-4.7,71.7,7.3c2.4,1.4,3.2,4.6,1.8,7
		C94,50.7,90.9,51.5,88.5,50.1L88.5,50.1z"/>
</g>
</svg>
