<?xml version="1.0" encoding="utf-8"?>
<!-- Generator: Adobe Illustrator 24.2.3, SVG Export Plug-In . SVG Version: 6.00 Build 0)  -->
<svg version="1.1" id="Layer_1" xmlns="http://www.w3.org/2000/svg" xmlns:xlink="http://www.w3.org/1999/xlink" x="0px" y="0px"
	 viewBox="0 0 300 300" style="enable-background:new 0 0 300 300;" xml:space="preserve">
<style type="text/css">
	.st0{display:none;fill:#181818;}
	.st1{fill:#967D45;}
	.st2{display:none;fill:#967D45;}
	.st3{display:none;fill:#C89C38;}
	.st4{fill:#C89C38;}
</style>
<circle class="st0" cx="148.6" cy="149" r="120.8"/>
<g transform="translate(0.000000,300.000000) scale(0.100000,-0.100000)">
	<g transform="translate(0.000000,300.000000) scale(0.100000,-0.100000)">
		<path class="st1" d="M22759.5-7155.4c-434.3-576.3-484.4-860.3-526.2-2981.8c-25.1-1077.5-75.2-2163.3-116.9-2405.5
			c-284-1595.3-1762.4-3040.3-4109.4-4025.9c-793.5-334.1-943.8-342.4-1653.8-83.5c-1194.4,426-2213.4,1044.1-2965.1,1787.4
			c-684.9,676.6-927.1,1010.7-1177.7,1645.4c-242.2,626.4-267.3,893.7-325.8,3123.8c-25.1,918.8-50.1,1770.7-66.8,1896
			c-50.1,350.8-233.9,743.4-509.5,1094.2l-250.6,309l375.9,735c735,1461.7,2163.3,2589.3,3466.3,2731.3
			c634.8,75.2,785.1-50.1,576.3-467.7c-350.8-668.2-609.7-2146.6-634.8-3583.2c-8.4-526.2-58.5-1010.7-108.6-1077.5
			c-50.1-58.5-233.9-208.8-409.3-317.4c-175.4-108.6-426-375.9-568-593c-292.3-459.4-576.3-1361.5-576.3-1812.5v-317.4l400.9,41.8
			c551.3,50.1,1561.9,559.6,2046.4,1019l392.6,384.2v3307.6l484.4,476.1c267.3,258.9,526.2,476.1,576.3,476.1
			c100.2,0,735-609.7,910.4-885.4c91.9-125.3,116.9-576.3,125.3-1812.5l8.4-1645.4l426-384.2c350.8-309,785.1-584.7,1060.8-659.8
			c25.1-8.4,142-58.5,258.9-108.6c125.3-50.1,417.6-125.3,659.8-167.1l434.3-83.5l-58.5,601.4
			c-91.9,1002.3-551.3,1779.1-1361.5,2305.3c-175.4,116.9-192.1,200.5-225.5,960.5c-83.5,1804.1-192.1,2530.8-526.2,3508.1
			c-250.6,710-250.6,718.3-75.2,801.8c200.5,116.9,860.3,33.4,1336.4-150.3c1010.7-400.9,2104.8-1461.7,2672.8-2572.6
			C23018.4-6679.3,23026.8-6812.9,22759.5-7155.4z M21347.9-4566.1c-526.2,492.8-1244.5,877-1887.7,1019
			c-785.1,167.1-776.8,167.1-534.6-434.3c258.9-651.5,492.8-2038,559.6-3407.8l58.5-1044.1l375.9-242.2
			c651.5-409.3,1110.9-1369.8,1227.8-2572.6l50.1-476.1h-233.9c-743.4,0-1862.6,484.4-2564.2,1102.5l-459.4,417.6v1678.9
			l-8.4,1687.2l-417.6,451l-417.6,451l-459.4-451l-459.4-451l16.7-1670.5l8.4-1670.5l-442.7-400.9
			c-517.9-459.4-1419.9-918.8-2063.1-1052.4c-751.7-158.7-743.4-158.7-710,384.2c83.5,1135.9,584.7,2196.7,1227.8,2597.6
			c359.2,217.2,367.5,233.9,417.6,768.4c25.1,300.7,50.1,768.4,50.1,1044.1c8.4,985.6,350.8,2664.5,643.1,3115.5
			c66.8,108.6,100.2,217.2,75.2,250.6c-100.2,100.2-1177.7-167.1-1670.5-417.6c-726.7-367.5-1670.5-1344.8-2113.2-2196.7
			l-342.5-668.2l167-208.8c100.2-116.9,267.3-409.3,384.2-659.8c200.5-442.7,208.8-542.9,267.3-2714.6
			c66.8-2464,91.9-2622.7,634.8-3491.3c350.8-568,1277.9-1411.6,2021.3-1854.3c818.5-484.4,1962.8-968.9,2313.6-968.9
			c142,0,559.6,125.3,943.8,284c1862.6,760.1,3190.7,1904.4,3750.3,3240.8c217.2,509.5,225.5,593,275.6,2781.4
			c66.8,2480.7,116.9,2773,593,3265.8c242.2,250.6,242.2,258.9,108.6,576.3C22517.3-5977.7,21840.7-5033.9,21347.9-4566.1z"/>
		<path class="st2" d="M22734.4-6503.9c-217.2,526.2-893.7,1470-1386.5,1937.8c-526.2,492.8-1244.5,877-1887.7,1019
			c-785.1,167.1-776.8,167.1-534.6-434.3c258.9-651.5,492.8-2038,559.6-3407.8l58.5-1044.1l375.9-242.2
			c651.5-409.3,1110.9-1369.8,1227.8-2572.6l50.1-476.1h-233.9c-743.4,0-1862.6,484.4-2564.2,1102.5l-459.4,417.6v1678.9
			l-8.4,1687.2l-417.6,451l-417.6,451l-459.4-451l-459.4-451l16.7-1670.5l8.4-1670.5l-442.7-400.9
			c-517.9-459.4-1419.9-918.8-2063.1-1052.4c-751.7-158.7-743.4-158.7-710,384.2c83.5,1135.9,584.7,2196.7,1227.8,2597.6
			c359.2,217.2,367.5,233.9,417.6,768.4c25.1,300.7,50.1,768.4,50.1,1044.1c8.4,985.6,350.8,2664.5,643.1,3115.5
			c66.8,108.6,100.2,217.2,75.2,250.6c-100.2,100.2-1177.7-167.1-1670.5-417.6c-726.7-367.5-1670.5-1344.8-2113.2-2196.7
			l-342.5-668.2l167-208.8c100.2-116.9,267.3-409.3,384.2-659.8c200.5-442.7,208.8-542.9,267.3-2714.6
			c66.8-2464,91.9-2622.7,634.8-3491.3c350.8-568,1277.9-1411.6,2021.3-1854.3c818.5-484.4,1962.8-968.9,2313.6-968.9
			c142,0,559.6,125.3,943.8,284c1862.6,760.1,3190.7,1904.4,3750.3,3240.8c217.2,509.5,225.5,593,275.6,2781.4
			c66.8,2480.7,116.9,2773,593,3265.8C22868.1-6829.7,22868.1-6821.3,22734.4-6503.9z"/>
	</g>
	<path class="st3" d="M1846.3,1420.2c-43.4,57.6-48.4,86-52.6,298.2c-2.5,107.7-7.5,216.3-11.7,240.6
		c-28.4,159.5-176.2,304-410.9,402.6c-79.3,33.4-94.4,34.2-165.4,8.4c-119.4-42.6-221.3-104.4-296.5-178.7
		c-68.5-67.7-92.7-101.1-117.8-164.5c-24.2-62.6-26.7-89.4-32.6-312.4c-2.5-91.9-5-177.1-6.7-189.6c-5-35.1-23.4-74.3-51-109.4
		l-25.1-30.9l37.6-73.5c73.5-146.2,216.3-258.9,346.6-273.1c63.5-7.5,78.5,5,57.6,46.8c-35.1,66.8-61,214.7-63.5,358.3
		c-0.8,52.6-5.8,101.1-10.9,107.7c-5,5.8-23.4,20.9-40.9,31.7c-17.5,10.9-42.6,37.6-56.8,59.3c-29.2,45.9-57.6,136.1-57.6,181.2
		v31.7l40.1-4.2c55.1-5,156.2-56,204.6-101.9l39.3-38.4v-330.8l48.4-47.6c26.7-25.9,52.6-47.6,57.6-47.6c10,0,73.5,61,91,88.5
		c9.2,12.5,11.7,57.6,12.5,181.2l0.8,164.5l42.6,38.4c35.1,30.9,78.5,58.5,106.1,66c2.5,0.8,14.2,5.8,25.9,10.9
		c12.5,5,41.8,12.5,66,16.7l43.4,8.4l-5.8-60.1c-9.2-100.2-55.1-177.9-136.1-230.5c-17.5-11.7-19.2-20-22.6-96.1
		c-8.4-180.4-19.2-253.1-52.6-350.8c-25.1-71-25.1-71.8-7.5-80.2c20-11.7,86-3.3,133.6,15c101.1,40.1,210.5,146.2,267.3,257.3
		C1872.2,1372.6,1873.1,1386,1846.3,1420.2z M1705.2,1161.3c-52.6-49.3-124.5-87.7-188.8-101.9c-78.5-16.7-77.7-16.7-53.5,43.4
		c25.9,65.1,49.3,203.8,56,340.8l5.8,104.4l37.6,24.2c65.1,40.9,111.1,137,122.8,257.3l5,47.6h-23.4c-74.3,0-186.3-48.4-256.4-110.3
		l-45.9-41.8v-167.9l-0.8-168.7l-41.8-45.1l-41.8-45.1l-45.9,45.1l-45.9,45.1l1.7,167.1l0.8,167.1l-44.3,40.1
		c-51.8,45.9-142,91.9-206.3,105.2c-75.2,15.9-74.3,15.9-71-38.4c8.4-113.6,58.5-219.7,122.8-259.8c35.9-21.7,36.8-23.4,41.8-76.8
		c2.5-30.1,5-76.8,5-104.4c0.8-98.6,35.1-266.4,64.3-311.5c6.7-10.9,10-21.7,7.5-25.1c-10-10-117.8,16.7-167,41.8
		c-72.7,36.8-167.1,134.5-211.3,219.7l-34.2,66.8l16.7,20.9c10,11.7,26.7,40.9,38.4,66c20,44.3,20.9,54.3,26.7,271.5
		c6.7,246.4,9.2,262.3,63.5,349.1c35.1,56.8,127.8,141.2,202.1,185.4c81.9,48.4,196.3,96.9,231.4,96.9c14.2,0,56-12.5,94.4-28.4
		c186.3-76,319.1-190.4,375-324.1c21.7-51,22.6-59.3,27.6-278.1c6.7-248.1,11.7-277.3,59.3-326.6c24.2-25.1,24.2-25.9,10.9-57.6
		C1822.1,1302.5,1754.4,1208.1,1705.2,1161.3z"/>
	<path class="st4" d="M1843.8,1355.1c-21.7-52.6-89.4-147-138.7-193.8c-52.6-49.3-124.5-87.7-188.8-101.9
		c-78.5-16.7-77.7-16.7-53.5,43.4c25.9,65.1,49.3,203.8,56,340.8l5.8,104.4l37.6,24.2c65.1,40.9,111.1,137,122.8,257.3l5,47.6h-23.4
		c-74.3,0-186.3-48.4-256.4-110.3l-45.9-41.8v-167.9l-0.8-168.7l-41.8-45.1l-41.8-45.1l-45.9,45.1l-45.9,45.1l1.7,167.1l0.8,167.1
		l-44.3,40.1c-51.8,45.9-142,91.9-206.3,105.2c-75.2,15.9-74.3,15.9-71-38.4c8.4-113.6,58.5-219.7,122.8-259.8
		c35.9-21.7,36.8-23.4,41.8-76.8c2.5-30.1,5-76.8,5-104.4c0.8-98.6,35.1-266.4,64.3-311.5c6.7-10.9,10-21.7,7.5-25.1
		c-10-10-117.8,16.7-167,41.8c-72.7,36.8-167.1,134.5-211.3,219.7l-34.2,66.8l16.7,20.9c10,11.7,26.7,40.9,38.4,66
		c20,44.3,20.9,54.3,26.7,271.5c6.7,246.4,9.2,262.3,63.5,349.1c35.1,56.8,127.8,141.2,202.1,185.4c81.9,48.4,196.3,96.9,231.4,96.9
		c14.2,0,56-12.5,94.4-28.4c186.3-76,319.1-190.4,375-324.1c21.7-51,22.6-59.3,27.6-278.1c6.7-248.1,11.7-277.3,59.3-326.6
		C1857.2,1387.7,1857.2,1386.8,1843.8,1355.1z"/>
</g>
</svg>
