<?xml version="1.0" encoding="UTF-8" standalone="no"?>
<svg
   version="1.1"
   id="svg2"
   xml:space="preserve"
   width="336.86679"
   height="307.53815"
   viewBox="0 0 336.86679 307.53815"
   sodipodi:docname="cselectives.svg"
   inkscape:version="1.1 (c68e22c387, 2021-05-23)"
   xmlns:inkscape="http://www.inkscape.org/namespaces/inkscape"
   xmlns:sodipodi="http://sodipodi.sourceforge.net/DTD/sodipodi-0.dtd"
   xmlns="http://www.w3.org/2000/svg"
   xmlns:svg="http://www.w3.org/2000/svg"
   xmlns:rdf="http://www.w3.org/1999/02/22-rdf-syntax-ns#"
   xmlns:cc="http://creativecommons.org/ns#"
   xmlns:dc="http://purl.org/dc/elements/1.1/"><metadata
     id="metadata8"><rdf:RDF><cc:Work
         rdf:about=""><dc:format>image/svg+xml</dc:format><dc:type
           rdf:resource="http://purl.org/dc/dcmitype/StillImage" /></cc:Work></rdf:RDF></metadata><defs
     id="defs6"><clipPath
       clipPathUnits="userSpaceOnUse"
       id="clipPath18"><path
         d="M 0,792 H 612 V 0 H 0 Z"
         id="path16" /></clipPath></defs><sodipodi:namedview
     pagecolor="#ffffff"
     bordercolor="#666666"
     borderopacity="1"
     objecttolerance="10"
     gridtolerance="10"
     guidetolerance="10"
     inkscape:pageopacity="0"
     inkscape:pageshadow="2"
     inkscape:window-width="3101"
     inkscape:window-height="1377"
     id="namedview4"
     inkscape:pagecheckerboard="0"
     showgrid="false"
     inkscape:zoom="1.1691368"
     inkscape:cx="165.93439"
     inkscape:cy="-45.760257"
     inkscape:window-x="0"
     inkscape:window-y="0"
     inkscape:window-maximized="0"
     inkscape:current-layer="g10" /><g
     id="g10"
     inkscape:groupmode="layer"
     inkscape:label="cselectives_beta"
     transform="matrix(1.3333333,0,0,-1.3333333,-221.03333,685.0285)"><g
       id="g12"><g
         id="g14"
         clip-path="url(#clipPath18)"><g
           id="g20"
           transform="translate(180.347,455.6148)"><path
             d="m 0,0 c -5.651,3.829 -10.557,13.455 -12.751,18.278 l -0.021,0.02 c -0.6,1.304 -0.993,2.257 -1.138,2.629 -0.041,0.062 -0.062,0.104 -0.062,0.145 0,0 -0.021,0.021 0,0.042 -0.393,1.241 -0.6,2.566 -0.6,3.912 V 44.69 c 0,5.216 2.877,9.522 6.934,11.758 L 6.148,43.427 C 0.021,42.393 -5.03,37.073 -5.03,30.159 V 10.495 C -5.03,6.355 -3.126,2.525 0,0"
             style="fill:#4a699c;fill-opacity:1;fill-rule:nonzero;stroke:none"
             id="path22" /></g><g
           id="g24"
           transform="translate(179.9951,461.4934)"><path
             d="M 0,0 C -0.476,0.828 -0.869,1.697 -1.138,2.629 -0.994,2.256 -0.6,1.304 0,0"
             style="fill:#3c537f;fill-opacity:1;fill-rule:nonzero;stroke:none"
             id="path26" /></g><g
           id="g28"
           transform="translate(297.0922,453.3999)"><path
             d="m 0,0 v -18.899 c 0,-5.361 -3.188,-10.225 -8.114,-12.337 l -104.409,-45.186 c -0.952,-0.415 -1.904,-0.704 -2.856,-0.891 -2.215,-0.414 -4.388,-0.248 -6.396,0.373 v 18.174 c 0,4.451 2.173,8.528 5.692,10.971 l -12.44,11.757 c 1.407,1.822 3.291,3.312 5.506,4.223 l 0.29,0.124 45.725,17.657 13.889,5.361 -31.877,12.482 c -0.103,0.062 -0.207,0.103 -0.311,0.145 l -14.696,5.754 -11.778,4.616 v 18.05 c 0,6.914 5.051,12.233 11.177,13.268 2.443,0.435 5.031,0.187 7.556,-0.91 z"
             style="fill:#4a699c;fill-opacity:1;fill-rule:nonzero;stroke:none"
             id="path30" /></g><g
           id="g32"
           transform="translate(415.8792,364.1269)"><path
             d="M 0,0 H -0.021 C -1.76,3.084 -4.306,5.61 -7.348,7.224 V 7.245 H -7.39 c -1.925,1.035 -4.036,1.676 -6.292,1.904 l -141.461,13.124 -2.049,0.186 1.967,-0.207 -10.123,-1.118 -11.177,7.204 c 3.187,2.194 7.079,3.332 11.177,2.939 l 9.129,-0.849 135.726,-12.647 c 0.083,0 0.145,-0.021 0.228,-0.042 C -14.51,16.663 -2.422,5.403 0,0"
             style="fill:#9adaf0;fill-opacity:1;fill-rule:nonzero;stroke:none"
             id="path34" /></g><g
           id="g36"
           transform="translate(408.5309,371.3717)"><path
             d="M 0,0 V -0.021 C -0.021,0 -0.041,0 -0.041,0 Z"
             style="fill:#76a9c2;fill-opacity:1;fill-rule:nonzero;stroke:none"
             id="path38" /></g><g
           id="g40"
           transform="translate(415.8584,364.1269)"><path
             d="M 0,0 -157.171,22.459 -13.662,9.149 C -7.824,8.59 -2.836,5.051 0,0"
             style="fill:#76a9c2;fill-opacity:1;fill-rule:nonzero;stroke:none"
             id="path42" /></g><g
           id="g44"
           transform="translate(341.6336,370.5336)"><path
             d="M 0,0 -144.855,13.496 -1.345,0.186 C -0.89,0.145 -0.435,0.083 0,0"
             style="fill:#2c317d;fill-opacity:1;fill-rule:nonzero;stroke:none"
             id="path46" /></g><g
           id="g48"
           transform="translate(410.2696,363.1747)"><path
             d="m 0,0 v -12.296 c 0,-9.211 -6.168,-17.097 -14.655,-18.712 l -143.51,-29.604 c -10.888,-2.07 -20.886,6.893 -20.886,18.712 v 55.21 c 0,6.727 3.271,12.606 8.135,15.98 l 11.178,-7.204 10.122,1.118 L -1.78,8.197 h 0.041 V 8.176 C -0.621,5.692 0,2.919 0,0"
             style="fill:#4a699c;fill-opacity:1;fill-rule:nonzero;stroke:none"
             id="path50" /></g><g
           id="g52"
           transform="translate(418.4251,354.3361)"><path
             d="m 0,0 v -12.296 c 0,-9.211 -6.168,-17.097 -14.655,-18.712 l -143.51,-27.303 c -10.888,-2.069 -20.886,6.893 -20.886,18.713 V 13.31 c 0,11.136 8.922,19.892 19.313,18.94 l 143.51,-13.31 c 5.837,-0.559 10.825,-4.099 13.661,-9.149 h 0.021 C -0.931,6.914 0,3.56 0,0"
             style="fill:#6ba9de;fill-opacity:1;fill-rule:nonzero;stroke:none"
             id="path54" /></g><g
           id="g56"
           transform="translate(288.5519,361.2604)"><path
             d="m 0,0 3.464,-7.019 c 0.205,-0.416 0.602,-0.704 1.06,-0.77 l 7.746,-1.126 c 1.155,-0.168 1.616,-1.587 0.781,-2.401 L 7.445,-16.78 c -0.331,-0.323 -0.483,-0.789 -0.404,-1.246 l 1.323,-7.715 c 0.197,-1.15 -1.01,-2.027 -2.043,-1.484 l -6.928,3.643 c -0.41,0.215 -0.9,0.215 -1.31,0 l -6.929,-3.643 c -1.033,-0.543 -2.24,0.334 -2.043,1.484 l 1.324,7.715 c 0.078,0.457 -0.073,0.923 -0.405,1.246 l -5.605,5.464 c -0.836,0.814 -0.375,2.233 0.78,2.401 l 7.746,1.126 c 0.459,0.066 0.855,0.354 1.06,0.77 L -2.525,0 C -2.008,1.046 -0.516,1.046 0,0"
             style="fill:#ffffff;fill-opacity:1;fill-rule:nonzero;stroke:none"
             id="path58" /></g><g
           id="g60"
           transform="translate(330.0542,359.5762)"><path
             d="m 0,0 3.026,-6.131 c 0.179,-0.362 0.525,-0.614 0.925,-0.672 l 6.766,-0.983 c 1.008,-0.147 1.411,-1.386 0.681,-2.097 l -4.895,-4.772 c -0.29,-0.283 -0.422,-0.69 -0.354,-1.089 l 1.156,-6.738 c 0.172,-1.004 -0.882,-1.77 -1.784,-1.296 l -6.051,3.181 c -0.359,0.189 -0.787,0.189 -1.145,0 l -6.051,-3.181 c -0.902,-0.474 -1.956,0.292 -1.784,1.296 l 1.156,6.738 c 0.068,0.399 -0.064,0.806 -0.354,1.089 l -4.895,4.772 c -0.73,0.711 -0.328,1.95 0.681,2.097 l 6.765,0.983 c 0.401,0.058 0.747,0.31 0.926,0.672 L -2.205,0 C -1.754,0.914 -0.451,0.914 0,0"
             style="fill:#ffffff;fill-opacity:1;fill-rule:nonzero;stroke:none"
             id="path62" /></g><g
           id="g64"
           transform="translate(368.5152,357.8873)"><path
             d="M 0,0 2.586,-5.239 C 2.739,-5.55 3.035,-5.765 3.377,-5.814 l 5.782,-0.84 c 0.862,-0.126 1.206,-1.185 0.582,-1.793 l -4.184,-4.078 c -0.247,-0.242 -0.36,-0.589 -0.302,-0.93 l 0.988,-5.759 c 0.147,-0.858 -0.754,-1.513 -1.525,-1.108 l -5.171,2.719 c -0.306,0.161 -0.672,0.161 -0.978,0 l -5.172,-2.719 c -0.771,-0.405 -1.672,0.25 -1.525,1.108 l 0.988,5.759 c 0.059,0.341 -0.054,0.688 -0.302,0.93 l -4.184,4.078 c -0.624,0.608 -0.28,1.667 0.582,1.793 l 5.782,0.84 c 0.343,0.049 0.639,0.264 0.792,0.575 L -1.885,0 c 0.386,0.781 1.5,0.781 1.885,0"
             style="fill:#ffffff;fill-opacity:1;fill-rule:nonzero;stroke:none"
             id="path66" /></g><g
           id="g68"
           transform="translate(356.24,304.5406)"><path
             d="m 0,0 45.542,8.661 c 1.061,0.202 1.786,-1.041 1.09,-1.865 L 38.641,-2.661 C 38.466,-2.868 38.37,-3.13 38.37,-3.4 v -16.875 c 0,-0.859 -0.91,-1.413 -1.673,-1.018 L -0.313,-2.144 C -1.279,-1.643 -1.069,-0.203 0,0"
             style="fill:#6ba9de;fill-opacity:1;fill-rule:nonzero;stroke:none"
             id="path70" /></g><g
           id="g72"
           transform="translate(341.8612,370.4922)"><path
             d="m 0,0 c -0.083,0.021 -0.145,0.041 -0.228,0.041 l 0.207,-0.02 z"
             style="fill:#2c317d;fill-opacity:1;fill-rule:nonzero;stroke:none"
             id="path74" /></g><g
           id="g76"
           transform="translate(229.7529,343.9761)"><path
             d="M 0,0 -0.083,-0.021 -2.049,0.186 Z"
             style="fill:#2c317d;fill-opacity:1;fill-rule:nonzero;stroke:none"
             id="path78" /></g><g
           id="g80"
           transform="translate(306.631,440.4372)"><path
             d="m 0,0 v -20.472 c 0,-5.361 -3.188,-10.225 -8.114,-12.337 l -25.647,-11.095 -26.557,2.464 c -10.392,0.952 -19.313,-7.804 -19.313,-18.941 v -3.374 l -32.892,-14.241 c -4.305,-1.863 -8.859,-1.283 -12.398,0.911 0,0 -0.042,0.021 -0.104,0.083 -1.884,1.159 -3.477,2.794 -4.575,4.761 0,0.02 -0.02,0.02 -0.02,0.041 -1.077,1.904 -1.698,4.14 -1.698,6.562 v 19.83 c 0,4.45 2.174,8.528 5.693,10.971 0.807,0.579 1.676,1.055 2.608,1.449 l 0.29,0.124 59.614,23.018 -23.432,9.17 -8.445,3.311 c -0.103,0.063 -0.207,0.104 -0.311,0.145 l -27.488,10.764 c -1.263,0.497 -2.402,1.159 -3.416,1.967 -0.021,0 -0.021,0.02 -0.041,0.02 -0.021,0 -0.021,0.021 -0.042,0.042 -3.125,2.525 -5.03,6.354 -5.03,10.494 v 19.665 c 0,6.251 4.14,11.198 9.46,12.834 0.559,0.206 1.139,0.331 1.718,0.434 2.443,0.435 5.03,0.186 7.555,-0.911 L -9.543,12.958 -7.969,12.275 C -5.03,10.971 -2.712,8.694 -1.366,5.899 -0.476,4.098 0,2.091 0,0"
             style="fill:#6ba9de;fill-opacity:1;fill-rule:nonzero;stroke:none"
             id="path82" /></g><g
           id="g84"
           transform="translate(178.7738,464.3086)"><path
             d="m 0,0 h 0.021 c -0.021,-0.021 0,-0.041 0,-0.041 C 0,-0.021 0,0 0,0"
             style="fill:#3c537f;fill-opacity:1;fill-rule:nonzero;stroke:none"
             id="path86" /></g><g
           id="g88"
           transform="translate(175.317,374.804)"><path
             d="M 0,0 C 0,-2.422 0.621,-4.657 1.697,-6.562 -2.815,-1.615 -8.921,5.961 -8.963,10.577 v 0.042 c -0.372,1.221 -0.579,2.546 -0.579,3.912 v 19.83 c 0,2.608 0.765,5.092 2.09,7.203 0.207,0.352 0.435,0.684 0.704,0.994 L 5.692,30.801 C 2.173,28.358 0,24.28 0,19.83 Z"
             style="fill:#4a699c;fill-opacity:1;fill-rule:nonzero;stroke:none"
             id="path90" /></g><g
           id="g92"
           transform="translate(305.2684,446.3415)"><path
             d="M 0,0 C -1.345,2.794 -3.664,5.071 -6.603,6.375 L -8.176,7.058 -111.218,51.79 c -2.526,1.097 -5.113,1.346 -7.556,0.911 -0.579,-0.104 -1.159,-0.228 -1.718,-0.435 l -0.641,0.642 -11.427,12.813 c 3.437,1.925 7.721,2.36 11.799,0.6 L -16.146,20.906 c 1.304,-0.579 2.484,-1.345 3.499,-2.276 0,0 0.062,-0.042 0.186,-0.145 C -11.24,17.574 -4.512,12.171 0,0"
             style="fill:#9adaf0;fill-opacity:1;fill-rule:nonzero;stroke:none"
             id="path94" /></g></g></g></g></svg>
