<?xml version="1.0" encoding="UTF-8" standalone="no"?>
<svg
   width="24"
   height="24"
   viewBox="0 0 24 24"
   fill="none"
   version="1.1"
   id="svg14"
   sodipodi:docname="atlassian.svg"
   inkscape:version="1.1 (c68e22c387, 2021-05-23)"
   xmlns:inkscape="http://www.inkscape.org/namespaces/inkscape"
   xmlns:sodipodi="http://sodipodi.sourceforge.net/DTD/sodipodi-0.dtd"
   xmlns="http://www.w3.org/2000/svg"
   xmlns:svg="http://www.w3.org/2000/svg">
  <sodipodi:namedview
     id="namedview16"
     pagecolor="#ffffff"
     bordercolor="#666666"
     borderopacity="1.0"
     inkscape:pageshadow="2"
     inkscape:pageopacity="0.0"
     inkscape:pagecheckerboard="0"
     showgrid="false"
     inkscape:zoom="27.28125"
     inkscape:cx="12.004582"
     inkscape:cy="12.004582"
     inkscape:window-width="3840"
     inkscape:window-height="2081"
     inkscape:window-x="-9"
     inkscape:window-y="-9"
     inkscape:window-maximized="1"
     inkscape:current-layer="svg14" />
  <g
     id="icon-gradient-white-atlassian"
     transform="translate(-4.0000001,-4)">
    <g
       id="Group">
      <g
         id="Group_2">
        <path
           id="Vector"
           d="M 11.1213,15.0811 C 10.7578,14.6808 10.2125,14.7172 9.95798,15.1903 L 4.06868,26.981 C 3.85056,27.4541 4.17775,28 4.6867,28 h 8.1796 c 0.2545,0 0.5089,-0.1456 0.618,-0.4003 1.8177,-3.6391 0.7271,-9.207 -2.363,-12.5186 z"
           fill="url(#paint0_linear)"
           style="fill:url(#paint0_linear)" />
        <path
           id="Vector_2"
           d="m 15.4474,4.38211 c -3.2719,5.20394 -3.0537,10.99019 -0.9089,15.32069 2.1812,4.3306 3.8172,7.6785 3.9626,7.8969 0.109,0.2547 0.3635,0.4003 0.618,0.4003 h 8.1796 c 0.5089,0 0.8725,-0.5459 0.618,-1.019 0,0 -11.0152,-22.05302 -11.306,-22.59889 -0.2181,-0.50948 -0.8725,-0.50948 -1.1633,0 z"
           fill="#ffffff" />
      </g>
    </g>
  </g>
  <defs
     id="defs12">
    <linearGradient
       id="paint0_linear"
       x1="14.3387"
       y1="16.905001"
       x2="8.1223898"
       y2="27.6609"
       gradientUnits="userSpaceOnUse">
      <stop
         stop-color="white"
         stop-opacity="0.4"
         id="stop7" />
      <stop
         offset="0.9228"
         stop-color="white"
         id="stop9" />
    </linearGradient>
  </defs>
</svg>
