<?xml version="1.0" encoding="utf-8"?>
<!-- Generator: Adobe Illustrator 24.2.3, SVG Export Plug-In . SVG Version: 6.00 Build 0)  -->
<svg version="1.1" id="Group_1280" xmlns="http://www.w3.org/2000/svg" xmlns:xlink="http://www.w3.org/1999/xlink" x="0px" y="0px"
	 viewBox="0 0 255.7 65.3" style="enable-background:new 0 0 255.7 65.3;" xml:space="preserve">
<style type="text/css">
	.st0{fill:#121212;}
</style>
<path id="Path_2514" class="st0" d="M0,9.6h10V46h18.5v9.2H0V9.6z"/>
<path id="Path_2515" class="st0" d="M32.9,24.3h9.6v30.9h-9.6V24.3z M37.7,8.9c3.1,0,5.6,2.5,5.6,5.6S40.8,20,37.7,20
	c-3.1,0-5.6-2.5-5.6-5.6C32.1,11.4,34.6,8.9,37.7,8.9C37.7,8.9,37.7,8.9,37.7,8.9"/>
<path id="Path_2516" class="st0" d="M82.7,9.6h9.6v27.3l10.9-12.6h11.8l-12.6,14.3l12.3,16.6h-12.1L92.4,39.9h-0.1v15.3h-9.6
	L82.7,9.6z"/>
<path id="Path_2517" class="st0" d="M47.8,24.3h9.2v4.2h0.1c1.9-3.2,5.4-5.1,9.1-5c9.7,0,11.5,6.4,11.5,14.7v17h-9.6v-15
	c0-3.6-0.1-8.2-5-8.2c-5,0-5.8,3.9-5.8,7.9v15.3h-9.6L47.8,24.3z"/>
<path id="Path_2518" class="st0" d="M135.1,36.1c0.1-3.2-2.4-5.8-5.6-5.9c-0.1,0-0.2,0-0.3,0c-3.5-0.2-6.5,2.4-6.8,5.9H135.1z
	 M143.3,49.8c-3.2,3.9-8.1,6.2-13.1,6.2c-9.6,0-17.3-6.4-17.3-16.3s7.7-16.3,17.3-16.3c9,0,14.6,6.4,14.6,16.3v3h-22.3
	c0.6,3.5,3.7,6.1,7.2,6c2.8,0,5.4-1.4,6.9-3.8L143.3,49.8z"/>
<path id="Path_2519" class="st0" d="M164.8,31.7c-4.8,0-7.7,3.2-7.7,7.9s2.9,7.9,7.7,7.9s7.7-3.2,7.7-7.9S169.6,31.7,164.8,31.7
	 M181.3,55.2h-8.8v-4.1h-0.1c-2.2,3-5.8,4.8-9.5,4.9c-9.2,0-15.3-6.7-15.3-16.1c0-8.6,5.4-16.6,14.2-16.6c4,0,7.7,1.1,9.9,4.1h0.1
	V9.6h9.6L181.3,55.2z"/>
<path id="Path_2520" class="st0" d="M246.1,55.2h-9.6v-15c0-3.6-0.1-8.2-5-8.2c-5,0-5.8,3.9-5.8,7.9v15.3h-9.6V24.3h9.2v4.2h0.1
	c1.9-3.2,5.4-5.1,9.1-5c9.7,0,11.5,6.4,11.5,14.7L246.1,55.2z M205.3,20.1c-3.1,0-5.6-2.5-5.6-5.6s2.5-5.6,5.6-5.6
	c3.1,0,5.6,2.5,5.6,5.6S208.4,20.1,205.3,20.1L205.3,20.1 M210.1,55.2h-9.6V24.3h9.6V55.2z M250.9,0h-55.2c-2.6,0-4.7,2.1-4.8,4.7
	v55.4c0,2.6,2.2,4.7,4.8,4.7h55.2c2.6,0,4.8-2.1,4.8-4.7V4.7C255.6,2.1,253.5,0,250.9,0"/>
</svg>
