<?xml version="1.0" encoding="UTF-8" standalone="no"?>
<!-- Generator: Adobe Illustrator 24.2.3, SVG Export Plug-In . SVG Version: 6.00 Build 0)  -->

<svg
   version="1.1"
   id="Layer_1"
   x="0px"
   y="0px"
   viewBox="0 0 159.73932 173.90649"
   xml:space="preserve"
   sodipodi:docname="dewoh.svg"
   width="159.73932"
   height="173.90649"
   inkscape:version="1.1 (c68e22c387, 2021-05-23)"
   xmlns:inkscape="http://www.inkscape.org/namespaces/inkscape"
   xmlns:sodipodi="http://sodipodi.sourceforge.net/DTD/sodipodi-0.dtd"
   xmlns="http://www.w3.org/2000/svg"
   xmlns:svg="http://www.w3.org/2000/svg"><defs
   id="defs21" /><sodipodi:namedview
   id="namedview19"
   pagecolor="#ffffff"
   bordercolor="#666666"
   borderopacity="1.0"
   inkscape:pageshadow="2"
   inkscape:pageopacity="0.0"
   inkscape:pagecheckerboard="0"
   showgrid="false"
   fit-margin-top="0"
   fit-margin-left="0"
   fit-margin-right="0"
   fit-margin-bottom="0"
   inkscape:zoom="2.91"
   inkscape:cx="-35.395189"
   inkscape:cy="-12.886598"
   inkscape:window-width="3840"
   inkscape:window-height="2097"
   inkscape:window-x="-8"
   inkscape:window-y="-8"
   inkscape:window-maximized="1"
   inkscape:current-layer="Layer_1" />
<style
   type="text/css"
   id="style2">
	.st0{display:none;fill:#181818;}
	.st1{fill:#967D45;}
	.st2{display:none;fill:#967D45;}
	.st3{display:none;fill:#C89C38;}
	.st4{fill:#C89C38;}
</style>
<circle
   class="st0"
   cx="78.810005"
   cy="86"
   r="120.8"
   id="circle4" />
<g
   transform="matrix(0.1,0,0,-0.1,-69.79,237)"
   id="g16">
	<g
   transform="matrix(0.1,0,0,-0.1,0,300)"
   id="g10">
		<path
   class="st1"
   d="m 22759.5,-7155.4 c -434.3,-576.3 -484.4,-860.3 -526.2,-2981.8 -25.1,-1077.5 -75.2,-2163.3 -116.9,-2405.5 -284,-1595.3 -1762.4,-3040.3 -4109.4,-4025.9 -793.5,-334.1 -943.8,-342.4 -1653.8,-83.5 -1194.4,426 -2213.4,1044.1 -2965.1,1787.4 -684.9,676.6 -927.1,1010.7 -1177.7,1645.4 -242.2,626.4 -267.3,893.7 -325.8,3123.8 -25.1,918.8 -50.1,1770.7 -66.8,1896 -50.1,350.8 -233.9,743.4 -509.5,1094.2 l -250.6,309 375.9,735 c 735,1461.7 2163.3,2589.3 3466.3,2731.3 634.8,75.2 785.1,-50.1 576.3,-467.7 -350.8,-668.2 -609.7,-2146.6 -634.8,-3583.2 -8.4,-526.2 -58.5,-1010.7 -108.6,-1077.5 -50.1,-58.5 -233.9,-208.8 -409.3,-317.4 -175.4,-108.6 -426,-375.9 -568,-593 -292.3,-459.4 -576.3,-1361.5 -576.3,-1812.5 v -317.4 l 400.9,41.8 c 551.3,50.1 1561.9,559.6 2046.4,1019 l 392.6,384.2 v 3307.6 l 484.4,476.1 c 267.3,258.9 526.2,476.1 576.3,476.1 100.2,0 735,-609.7 910.4,-885.4 91.9,-125.3 116.9,-576.3 125.3,-1812.5 l 8.4,-1645.4 426,-384.2 c 350.8,-309 785.1,-584.7 1060.8,-659.8 25.1,-8.4 142,-58.5 258.9,-108.6 125.3,-50.1 417.6,-125.3 659.8,-167.1 l 434.3,-83.5 -58.5,601.4 c -91.9,1002.3 -551.3,1779.1 -1361.5,2305.3 -175.4,116.9 -192.1,200.5 -225.5,960.5 -83.5,1804.1 -192.1,2530.8 -526.2,3508.1 -250.6,710 -250.6,718.3 -75.2,801.8 200.5,116.9 860.3,33.4 1336.4,-150.3 1010.7,-400.9 2104.8,-1461.7 2672.8,-2572.6 292.4,-593.1 300.8,-726.7 33.5,-1069.2 z m -1411.6,2589.3 c -526.2,492.8 -1244.5,877 -1887.7,1019 -785.1,167.1 -776.8,167.1 -534.6,-434.3 258.9,-651.5 492.8,-2038 559.6,-3407.8 l 58.5,-1044.1 375.9,-242.2 c 651.5,-409.3 1110.9,-1369.8 1227.8,-2572.6 l 50.1,-476.1 h -233.9 c -743.4,0 -1862.6,484.4 -2564.2,1102.5 l -459.4,417.6 v 1678.9 l -8.4,1687.2 -417.6,451 -417.6,451 -459.4,-451 -459.4,-451 16.7,-1670.5 8.4,-1670.5 -442.7,-400.9 c -517.9,-459.4 -1419.9,-918.8 -2063.1,-1052.4 -751.7,-158.7 -743.4,-158.7 -710,384.2 83.5,1135.9 584.7,2196.7 1227.8,2597.6 359.2,217.2 367.5,233.9 417.6,768.4 25.1,300.7 50.1,768.4 50.1,1044.1 8.4,985.6 350.8,2664.5 643.1,3115.5 66.8,108.6 100.2,217.2 75.2,250.6 -100.2,100.2 -1177.7,-167.1 -1670.5,-417.6 -726.7,-367.5 -1670.5,-1344.8 -2113.2,-2196.7 l -342.5,-668.2 167,-208.8 c 100.2,-116.9 267.3,-409.3 384.2,-659.8 200.5,-442.7 208.8,-542.9 267.3,-2714.6 66.8,-2464 91.9,-2622.7 634.8,-3491.3 350.8,-568 1277.9,-1411.6 2021.3,-1854.3 818.5,-484.4 1962.8,-968.9 2313.6,-968.9 142,0 559.6,125.3 943.8,284 1862.6,760.1 3190.7,1904.4 3750.3,3240.8 217.2,509.5 225.5,593 275.6,2781.4 66.8,2480.7 116.9,2773 593,3265.8 242.2,250.6 242.2,258.9 108.6,576.3 -216.7,526.1 -893.3,1469.9 -1386.1,1937.7 z"
   id="path6" />
		<path
   class="st2"
   d="m 22734.4,-6503.9 c -217.2,526.2 -893.7,1470 -1386.5,1937.8 -526.2,492.8 -1244.5,877 -1887.7,1019 -785.1,167.1 -776.8,167.1 -534.6,-434.3 258.9,-651.5 492.8,-2038 559.6,-3407.8 l 58.5,-1044.1 375.9,-242.2 c 651.5,-409.3 1110.9,-1369.8 1227.8,-2572.6 l 50.1,-476.1 h -233.9 c -743.4,0 -1862.6,484.4 -2564.2,1102.5 l -459.4,417.6 v 1678.9 l -8.4,1687.2 -417.6,451 -417.6,451 -459.4,-451 -459.4,-451 16.7,-1670.5 8.4,-1670.5 -442.7,-400.9 c -517.9,-459.4 -1419.9,-918.8 -2063.1,-1052.4 -751.7,-158.7 -743.4,-158.7 -710,384.2 83.5,1135.9 584.7,2196.7 1227.8,2597.6 359.2,217.2 367.5,233.9 417.6,768.4 25.1,300.7 50.1,768.4 50.1,1044.1 8.4,985.6 350.8,2664.5 643.1,3115.5 66.8,108.6 100.2,217.2 75.2,250.6 -100.2,100.2 -1177.7,-167.1 -1670.5,-417.6 -726.7,-367.5 -1670.5,-1344.8 -2113.2,-2196.7 l -342.5,-668.2 167,-208.8 c 100.2,-116.9 267.3,-409.3 384.2,-659.8 200.5,-442.7 208.8,-542.9 267.3,-2714.6 66.8,-2464 91.9,-2622.7 634.8,-3491.3 350.8,-568 1277.9,-1411.6 2021.3,-1854.3 818.5,-484.4 1962.8,-968.9 2313.6,-968.9 142,0 559.6,125.3 943.8,284 1862.6,760.1 3190.7,1904.4 3750.3,3240.8 217.2,509.5 225.5,593 275.6,2781.4 66.8,2480.7 116.9,2773 593,3265.8 242.7,250.4 242.7,258.8 109,576.2 z"
   id="path8" />
	</g>
	<path
   class="st3"
   d="m 1846.3,1420.2 c -43.4,57.6 -48.4,86 -52.6,298.2 -2.5,107.7 -7.5,216.3 -11.7,240.6 -28.4,159.5 -176.2,304 -410.9,402.6 -79.3,33.4 -94.4,34.2 -165.4,8.4 -119.4,-42.6 -221.3,-104.4 -296.5,-178.7 -68.5,-67.7 -92.7,-101.1 -117.8,-164.5 -24.2,-62.6 -26.7,-89.4 -32.6,-312.4 -2.5,-91.9 -5,-177.1 -6.7,-189.6 -5,-35.1 -23.4,-74.3 -51,-109.4 L 676,1384.5 713.6,1311 c 73.5,-146.2 216.3,-258.9 346.6,-273.1 63.5,-7.5 78.5,5 57.6,46.8 -35.1,66.8 -61,214.7 -63.5,358.3 -0.8,52.6 -5.8,101.1 -10.9,107.7 -5,5.8 -23.4,20.9 -40.9,31.7 -17.5,10.9 -42.6,37.6 -56.8,59.3 -29.2,45.9 -57.6,136.1 -57.6,181.2 v 31.7 l 40.1,-4.2 c 55.1,-5 156.2,-56 204.6,-101.9 l 39.3,-38.4 v -330.8 l 48.4,-47.6 c 26.7,-25.9 52.6,-47.6 57.6,-47.6 10,0 73.5,61 91,88.5 9.2,12.5 11.7,57.6 12.5,181.2 l 0.8,164.5 42.6,38.4 c 35.1,30.9 78.5,58.5 106.1,66 2.5,0.8 14.2,5.8 25.9,10.9 12.5,5 41.8,12.5 66,16.7 l 43.4,8.4 -5.8,-60.1 c -9.2,-100.2 -55.1,-177.9 -136.1,-230.5 -17.5,-11.7 -19.2,-20 -22.6,-96.1 -8.4,-180.4 -19.2,-253.1 -52.6,-350.8 -25.1,-71 -25.1,-71.8 -7.5,-80.2 20,-11.7 86,-3.3 133.6,15 101.1,40.1 210.5,146.2 267.3,257.3 29.5,59.3 30.4,72.7 3.6,106.9 z m -141.1,-258.9 c -52.6,-49.3 -124.5,-87.7 -188.8,-101.9 -78.5,-16.7 -77.7,-16.7 -53.5,43.4 25.9,65.1 49.3,203.8 56,340.8 l 5.8,104.4 37.6,24.2 c 65.1,40.9 111.1,137 122.8,257.3 l 5,47.6 h -23.4 c -74.3,0 -186.3,-48.4 -256.4,-110.3 l -45.9,-41.8 v -167.9 l -0.8,-168.7 -41.8,-45.1 -41.8,-45.1 -45.9,45.1 -45.9,45.1 1.7,167.1 0.8,167.1 -44.3,40.1 c -51.8,45.9 -142,91.9 -206.3,105.2 -75.2,15.9 -74.3,15.9 -71,-38.4 8.4,-113.6 58.5,-219.7 122.8,-259.8 35.9,-21.7 36.8,-23.4 41.8,-76.8 2.5,-30.1 5,-76.8 5,-104.4 0.8,-98.6 35.1,-266.4 64.3,-311.5 6.7,-10.9 10,-21.7 7.5,-25.1 -10,-10 -117.8,16.7 -167,41.8 -72.7,36.8 -167.1,134.5 -211.3,219.7 l -34.2,66.8 16.7,20.9 c 10,11.7 26.7,40.9 38.4,66 20,44.3 20.9,54.3 26.7,271.5 6.7,246.4 9.2,262.3 63.5,349.1 35.1,56.8 127.8,141.2 202.1,185.4 81.9,48.4 196.3,96.9 231.4,96.9 14.2,0 56,-12.5 94.4,-28.4 186.3,-76 319.1,-190.4 375,-324.1 21.7,-51 22.6,-59.3 27.6,-278.1 6.7,-248.1 11.7,-277.3 59.3,-326.6 24.2,-25.1 24.2,-25.9 10.9,-57.6 -21.9,-52.7 -89.6,-147.1 -138.8,-193.9 z"
   id="path12" />
	<path
   class="st4"
   d="m 1843.8,1355.1 c -21.7,-52.6 -89.4,-147 -138.7,-193.8 -52.6,-49.3 -124.5,-87.7 -188.8,-101.9 -78.5,-16.7 -77.7,-16.7 -53.5,43.4 25.9,65.1 49.3,203.8 56,340.8 l 5.8,104.4 37.6,24.2 c 65.1,40.9 111.1,137 122.8,257.3 l 5,47.6 h -23.4 c -74.3,0 -186.3,-48.4 -256.4,-110.3 l -45.9,-41.8 v -167.9 l -0.8,-168.7 -41.8,-45.1 -41.8,-45.1 -45.9,45.1 -45.9,45.1 1.7,167.1 0.8,167.1 -44.3,40.1 c -51.8,45.9 -142,91.9 -206.3,105.2 -75.2,15.9 -74.3,15.9 -71,-38.4 8.4,-113.6 58.5,-219.7 122.8,-259.8 35.9,-21.7 36.8,-23.4 41.8,-76.8 2.5,-30.1 5,-76.8 5,-104.4 0.8,-98.6 35.1,-266.4 64.3,-311.5 6.7,-10.9 10,-21.7 7.5,-25.1 -10,-10 -117.8,16.7 -167,41.8 -72.7,36.8 -167.1,134.5 -211.3,219.7 l -34.2,66.8 16.7,20.9 c 10,11.7 26.7,40.9 38.4,66 20,44.3 20.9,54.3 26.7,271.5 6.7,246.4 9.2,262.3 63.5,349.1 35.1,56.8 127.8,141.2 202.1,185.4 81.9,48.4 196.3,96.9 231.4,96.9 14.2,0 56,-12.5 94.4,-28.4 186.3,-76 319.1,-190.4 375,-324.1 21.7,-51 22.6,-59.3 27.6,-278.1 6.7,-248.1 11.7,-277.3 59.3,-326.6 24.2,-25.1 24.2,-26 10.8,-57.7 z"
   id="path14" />
</g>
</svg>
